<?xml version="1.0" encoding="utf-8"?>
<!-- Svg Vector Icons : http://www.onlinewebfonts.com/icon -->
<!DOCTYPE svg PUBLIC "-//W3C//DTD SVG 1.1//EN" "http://www.w3.org/Graphics/SVG/1.1/DTD/svg11.dtd">
<svg version="1.1" xmlns="http://www.w3.org/2000/svg" xmlns:xlink="http://www.w3.org/1999/xlink" x="0px" y="0px" style="fill:#FFFFFF" viewBox="0 0 1000 1000" enable-background="new 0 0 1000 1000" xml:space="preserve">
<metadata> Svg Vector Icons : http://www.onlinewebfonts.com/icon </metadata>
<g><g><path d="M649,441.8c5,8.3,7.4,27.8,7.4,58.4c0,29.7-2.8,48.7-8.3,57.4c-5.5,8.7-17.7,13-36.6,13h-56.1V429.4h58.6C632.4,429.3,644.1,433.5,649,441.8z M990,275.9v448.1c0,57.3-46.5,103.8-103.8,103.8H113.8C56.5,827.9,10,781.4,10,724.1V275.9c0-57.3,46.5-103.8,103.8-103.8h772.3C943.5,172.1,990,218.6,990,275.9z M479.6,396.2h-39.4v84.7h-97.3v-84.7h-39.4v207.6h39.4v-89.7h97.3v89.7h39.4L479.6,396.2L479.6,396.2z M696.5,481.8c0-31.7-5.8-53.9-17.4-66.6c-11.6-12.7-31.9-19-60.9-19h-102v207.6h103.3c32.8,0,53.8-7.4,63.2-22.2C691.9,566.9,696.5,533.6,696.5,481.8z"/></g><g></g><g></g><g></g><g></g><g></g><g></g><g></g><g></g><g></g><g></g><g></g><g></g><g></g><g></g><g></g></g>
</svg>