<?xml version="1.0" encoding="utf-8"?>
<!-- Svg Vector Icons : http://www.onlinewebfonts.com/icon -->
<!DOCTYPE svg PUBLIC "-//W3C//DTD SVG 1.1//EN" "http://www.w3.org/Graphics/SVG/1.1/DTD/svg11.dtd">
<svg version="1.1" xmlns="http://www.w3.org/2000/svg" xmlns:xlink="http://www.w3.org/1999/xlink" style="fill:#FFFFFF" x="0px" y="0px" viewBox="0 0 1000 1000" enable-background="new 0 0 1000 1000" xml:space="preserve">
<metadata> Svg Vector Icons : http://www.onlinewebfonts.com/icon </metadata>
<g><g><g><path d="M706.4,126.7c8.1,0,14.6-6.5,14.6-14.6V24.6c0-8.1-6.6-14.6-14.6-14.6c-8,0-14.6,6.6-14.6,14.6v87.4C691.8,120.1,698.4,126.7,706.4,126.7z"/><path d="M626.8,126.7c8.1,0,14.7-6.5,14.7-14.6V24.6c0-8.1-6.6-14.6-14.7-14.6c-8,0-14.6,6.6-14.6,14.6v87.4C612.2,120.1,618.7,126.7,626.8,126.7z"/><path d="M545.7,126.7c8.1,0,14.6-6.5,14.6-14.6V24.6c0-8.1-6.5-14.6-14.6-14.6c-8.1,0-14.6,6.6-14.6,14.6v87.4C531.1,120.1,537.6,126.7,545.7,126.7z"/><path d="M466.1,126.7c8.1,0,14.6-6.5,14.6-14.6V24.6c0-8.1-6.6-14.6-14.6-14.6c-8.1,0-14.6,6.6-14.6,14.6v87.4C451.4,120.1,458,126.7,466.1,126.7z"/><path d="M392.6,126.7c8,0,14.6-6.5,14.6-14.6V24.6c0-8.1-6.6-14.6-14.6-14.6c-8.1,0-14.6,6.6-14.6,14.6v87.4C378,120.1,384.5,126.7,392.6,126.7z"/><path d="M313,126.7c8.1,0,14.6-6.5,14.6-14.6V24.6c0-8.1-6.5-14.6-14.6-14.6c-8.1,0-14.6,6.6-14.6,14.6v87.4C298.3,120.1,304.9,126.7,313,126.7z"/><path d="M112,277.5H24.6c-8.1,0-14.6,6.6-14.6,14.6c0,8,6.5,14.6,14.6,14.6H112c8.1,0,14.6-6.6,14.6-14.6C126.6,284.1,120.1,277.5,112,277.5z"/><path d="M112,357.2H24.6c-8.1,0-14.6,6.5-14.6,14.6c0,8.1,6.5,14.6,14.6,14.6H112c8.1,0,14.6-6.5,14.6-14.6C126.6,363.7,120.1,357.2,112,357.2z"/><path d="M112,438.3H24.6c-8.1,0-14.6,6.5-14.6,14.6c0,8.1,6.5,14.6,14.6,14.6H112c8.1,0,14.6-6.5,14.6-14.6C126.6,444.8,120.1,438.3,112,438.3z"/><path d="M112,517.9H24.6c-8.1,0-14.6,6.6-14.6,14.6c0,8,6.5,14.6,14.6,14.6H112c8.1,0,14.6-6.6,14.6-14.6C126.6,524.5,120.1,517.9,112,517.9z"/><path d="M112,591.3H24.6c-8.1,0-14.6,6.6-14.6,14.6c0,8.1,6.5,14.7,14.6,14.7H112c8.1,0,14.6-6.6,14.6-14.7C126.6,597.9,120.1,591.3,112,591.3z"/><path d="M112,671H24.6c-8.1,0-14.6,6.5-14.6,14.6c0,8.1,6.5,14.6,14.6,14.6H112c8.1,0,14.6-6.6,14.6-14.6C126.6,677.5,120.1,671,112,671z"/><path d="M706.4,873.4c-8,0-14.6,6.6-14.6,14.6v87.4c0,8.1,6.6,14.6,14.6,14.6c8.1,0,14.6-6.5,14.6-14.6V888C721,879.9,714.5,873.4,706.4,873.4z"/><path d="M626.8,873.4c-8,0-14.6,6.6-14.6,14.6v87.4c0,8.1,6.6,14.6,14.6,14.6c8.1,0,14.7-6.5,14.7-14.6V888C641.4,879.9,634.9,873.4,626.8,873.4z"/><path d="M545.7,873.4c-8.1,0-14.6,6.6-14.6,14.6v87.4c0,8.1,6.6,14.6,14.6,14.6c8.1,0,14.6-6.5,14.6-14.6V888C560.3,879.9,553.7,873.4,545.7,873.4z"/><path d="M466.1,873.4c-8.1,0-14.6,6.6-14.6,14.6v87.4c0,8.1,6.5,14.6,14.6,14.6c8.1,0,14.6-6.5,14.6-14.6V888C480.7,879.9,474.1,873.4,466.1,873.4z"/><path d="M392.6,873.4c-8.1,0-14.6,6.6-14.6,14.6v87.4c0,8.1,6.5,14.6,14.6,14.6c8,0,14.6-6.5,14.6-14.6V888C407.2,879.9,400.6,873.4,392.6,873.4z"/><path d="M313,873.4c-8.1,0-14.6,6.6-14.6,14.6v87.4c0,8.1,6.6,14.6,14.6,14.6c8.1,0,14.6-6.5,14.6-14.6V888C327.5,879.9,321,873.4,313,873.4z"/><path d="M747,164.9H272.3c-49.8,0-90.4,40.6-90.4,90.4V730c0,49.9,40.6,90.5,90.4,90.5H747c49.8,0,90.4-40.6,90.4-90.5V255.4C837.4,205.5,796.8,164.9,747,164.9z M318.2,309.2c-15.9,0-28.8-12.9-28.8-28.8c0-15.9,12.9-28.8,28.8-28.8c15.9,0,28.8,12.9,28.8,28.8C347,296.3,334.1,309.2,318.2,309.2z M662.4,636H360.2v-305h302.2V636z"/><path d="M887.9,306.7h87.5c8.1,0,14.6-6.6,14.6-14.6s-6.6-14.6-14.6-14.6h-87.5c-8.1,0-14.6,6.6-14.6,14.6S879.9,306.7,887.9,306.7z"/><path d="M975.4,357.2h-87.5c-8.1,0-14.6,6.5-14.6,14.6c0,8.1,6.6,14.6,14.6,14.6h87.5c8.1,0,14.6-6.5,14.6-14.6C990,363.7,983.4,357.2,975.4,357.2z"/><path d="M975.4,438.3h-87.5c-8.1,0-14.6,6.5-14.6,14.6c0,8.1,6.6,14.6,14.6,14.6h87.5c8.1,0,14.6-6.5,14.6-14.6C990,444.8,983.4,438.3,975.4,438.3z"/><path d="M975.4,517.9h-87.5c-8.1,0-14.6,6.6-14.6,14.6c0,8,6.6,14.6,14.6,14.6h87.5c8.1,0,14.6-6.6,14.6-14.6C990,524.5,983.4,517.9,975.4,517.9z"/><path d="M975.4,591.3h-87.5c-8.1,0-14.6,6.6-14.6,14.6c0,8.1,6.6,14.7,14.6,14.7h87.5c8.1,0,14.6-6.6,14.6-14.7C990,597.9,983.4,591.3,975.4,591.3z"/><path d="M975.4,671h-87.5c-8.1,0-14.6,6.5-14.6,14.6c0,8.1,6.6,14.6,14.6,14.6h87.5c8.1,0,14.6-6.6,14.6-14.6C990,677.5,983.4,671,975.4,671z"/></g></g><g></g><g></g><g></g><g></g><g></g><g></g><g></g><g></g><g></g><g></g><g></g><g></g><g></g><g></g><g></g></g>
</svg>